#!OML:ASF F:\VICON\USERDATA\INSTALL\rory3\rory3.ASF
:FULLY-SPECIFIED
:DEGREES
324
root 3.34368 16.1969 -2.84278 391.837 25.9083 7.52791
lowerback 3.72601 3.08175 7.84232
upperback -1.21615 4.82762 7.42577
thorax -3.37962 2.34729 3.03222
lowerneck -3.6534 -15.1793 -15.7458
upperneck 14.9429 -21.1215 12.8456
head 8.29484 -10.1087 4.44842
rclavicle -3.97569e-014 -4.45278e-014
rhumerus 9.95612 -0.0203702 -60.439
rradius 22.3184
rwrist 14.5979
rhand -28.2715 -53.1805
rfingers 7.12502
rthumb 178.352 96.8461
lclavicle -3.97569e-014 -4.45278e-014
lhumerus -10.2641 21.1271 -5.75281
lradius 31.6035
lwrist 11.558
lhand -46.9791 -769.592
lfingers 7.12502
lthumb -19.6872 -20.5694
rfemur -71.6773 -10.8642 17.5366
rtibia 56.4632
rfoot -10.0106 -23.7094
rtoes 8.64773
lfemur -25.2909 2.42024 -25.2745
ltibia 35.3011
lfoot -33.7409 30.9895
ltoes -5.35759
325
root 3.31175 16.1454 -2.75868 392.386 25.0399 7.618
lowerback 4.09407 2.98475 7.75183
upperback -0.99972 4.71864 7.51907
thorax -3.3759 2.2967 3.17054
lowerneck -4.05177 -14.9373 -15.3616
upperneck 14.7148 -20.6948 12.5522
head 8.14625 -9.89875 4.34977
rclavicle 4.77083e-015 -6.99722e-014
rhumerus 10.8823 0.864776 -60.1726
rradius 22.4321
rwrist 13.9171
rhand -27.8003 -54.3764
rfingers 7.12502
rthumb 178.807 95.6472
lclavicle 4.77083e-015 -6.99722e-014
lhumerus -8.77372 20.2283 -5.0651
lradius 31.5902
lwrist 10.8389
lhand -47.7167 -772.079
lfingers 7.12502
lthumb -20.3962 -23.1297
rfemur -72.8379 -10.5343 17.6763
rtibia 57.4155
rfoot -10.4914 -23.0434
rtoes 9.53022
lfemur -25.6909 3.02123 -25.57
ltibia 35.5508
lfoot -34.1963 30.8659
ltoes -5.37651
326
root 3.28297 16.099 -2.66326 393 24.2017 7.81373
lowerback 4.42092 2.89038 7.63107
upperback -0.785078 4.60254 7.55132
thorax -3.3467 2.24255 3.26496
lowerneck -4.46039 -14.7958 -15.2056
upperneck 14.3617 -20.4354 12.5852
head 8.04856 -9.75971 4.35655
rclavicle 1.27222e-014 3.18055e-015
rhumerus 11.8751 2.49713 -59.5228
rradius 22.39
rwrist 12.303
rhand -27.9234 -55.0428
rfingers 7.12502
rthumb 178.688 94.9815
lclavicle 1.27222e-014 3.18055e-015
lhumerus -7.23567 19.6932 -4.43763
lradius 32.3865
lwrist 10.7417
lhand -47.2395 -768.097
lfingers 7.12502
lthumb -19.9375 -19.1001
rfemur -73.8722 -9.90569 17.3866
rtibia 58.3942
rfoot -11.3419 -22.7773
rtoes 10.6712
lfemur -26.2051 3.78767 -26.0067
ltibia 35.944
lfoot -34.0584 31.2527
ltoes -6.71702
327
root 3.26141 16.0446 -2.54918 393.617 23.5165 7.77732
lowerback 4.45063 2.6521 7.73251
upperback -0.772189 4.29315 7.59891
thorax -3.34547 2.08661 3.27927
lowerneck -4.18471 -14.371 -14.9697
upperneck 14.0175 -19.8802 12.6563
head 7.78834 -9.50354 4.46488
rclavicle 2.8625e-014 6.36111e-015
rhumerus 12.6003 3.32947 -59.6688
rradius 22.2268
rwrist 12.0086
rhand -28.4782 -56.5118
rfingers 7.12502
rthumb 178.152 93.5164
lclavicle 2.8625e-014 6.36111e-015
lhumerus -5.90216 18.4446 -4.22258
lradius 32.5402
lwrist 9.20429
lhand -46.7594 -767.092
lfingers 7.12502
lthumb -19.476 -18.0471
rfemur -74.8938 -9.3433 17.4446
rtibia 59.3835
rfoot -12.2525 -22.4796
rtoes 11.044
lfemur -26.806 4.86534 -26.2265
ltibia 36.3547
lfoot -33.494 31.7532
ltoes -9.08052
328
root 3.21366 15.9631 -2.4581 394.453 22.4799 7.88237
lowerback 4.82472 2.64921 7.28064
upperback -0.604062 4.29434 7.68469
thorax -3.41897 2.09585 3.60274
lowerneck -4.71557 -14.1702 -14.8121
upperneck 13.7959 -19.5353 12.66
head 7.74147 -9.31739 4.46402
rclavicle -6.20208e-014 -3.18055e-014
rhumerus 13.6814 1.72089 -60.2855
rradius 22.312
rwrist 13.8418
rhand -28.9919 -58.4609
rfingers 7.12502
rthumb 177.656 91.5722
lclavicle -6.20208e-014 -3.18055e-014
lhumerus -4.1425 17.8721 -3.51659
lradius 32.6417
lwrist 7.60546
lhand -46.4984 -766.232
lfingers 7.12502
lthumb -19.225 -17.1621
rfemur -76.3231 -8.30159 17.0868
rtibia 60.3539
rfoot -12.9626 -22.373
rtoes 11.6398
lfemur -27.6307 5.48186 -26.5999
ltibia 36.692
lfoot -33.885 31.7376
ltoes -9.44131
329
root 3.18173 15.9116 -2.36051 395.067 21.7169 7.84979
lowerback 5.27008 2.57646 7.37288
upperback -0.463362 4.24218 7.71087
thorax -3.51817 2.06515 3.5651
lowerneck -4.92194 -13.9654 -14.6331
upperneck 13.3904 -19.237 12.8426
head 7.60289 -9.15839 4.53568
rclavicle -8.11041e-014 -9.22361e-014
rhumerus 14.6446 1.94387 -60.2406
rradius 22.2849
rwrist 13.6923
rhand -28.9837 -58.7218
rfingers 7.12502
rthumb 177.664 91.3112
lclavicle -8.11041e-014 -9.22361e-014
lhumerus -2.63227 17.0953 -2.89713
lradius 33.3607
lwrist 5.9133
lhand -46.546 -765.837
lfingers 7.12502
lthumb -19.2707 -16.7721
rfemur -77.3966 -7.84255 17.2236
rtibia 61.1824
rfoot -13.7974 -21.835
rtoes 12.3907
lfemur -28.0707 5.89258 -26.7533
ltibia 36.8953
lfoot -34.7598 31.4267
ltoes -8.60465
330
root 3.16007 15.8925 -2.25989 395.482 21.1833 7.88202
lowerback 5.69753 2.45884 7.56462
upperback -0.120988 4.11986 7.88208
thorax -3.39936 2.00641 3.63719
lowerneck -5.38429 -13.8384 -14.5316
upperneck 13.0465 -18.9798 12.8122
head 7.52048 -9.02417 4.52407
rclavicle -6.36111e-014 -1.17681e-013
rhumerus 15.573 2.20717 -59.8481
rradius 22.6873
rwrist 13.2634
rhand -28.1516 -58.3502
rfingers 7.12502
rthumb 178.468 91.6756
lclavicle -6.36111e-014 -1.17681e-013
lhumerus -1.55654 16.4714 -1.92709
lradius 33.7459
lwrist 5.55092
lhand -44.8977 -771.747
lfingers 7.12502
lthumb -17.6852 -22.5317
rfemur -78.0141 -7.85847 17.5761
rtibia 61.88
rfoot -14.7618 -21.0296
rtoes 13.5283
lfemur -28.2386 6.52094 -26.9549
ltibia 37.0186
lfoot -34.7752 31.6452
ltoes -9.30506
331
root 3.13797 15.8613 -2.16113 396.004 20.6309 7.94047
lowerback 6.27241 2.30142 7.81128
upperback 0.0692059 3.98493 7.99251
thorax -3.51514 1.93335 3.60866
lowerneck -5.87342 -13.6788 -14.2738
upperneck 12.9714 -18.6655 12.4588
head 7.4732 -8.86936 4.39293
rclavicle 8.5875e-014 5.08889e-014
rhumerus 16.3326 2.58845 -59.5532
rradius 23.0253
rwrist 12.9757
rhand -27.9886 -57.94
rfingers 7.12502
rthumb 178.625 92.0847
lclavicle 8.5875e-014 5.08889e-014
lhumerus 2.20243 14.3407 -1.56254
lradius 32.7477
lwrist 6.12013
lhand -46.1203 -770.66
lfingers 7.12502
lthumb -18.8614 -21.554
rfemur -78.7428 -7.79167 17.8411
rtibia 62.5714
rfoot -15.4434 -20.3487
rtoes 14.2544
lfemur -28.5183 6.98669 -27.1841
ltibia 37.0639
lfoot -34.5491 32.1357
ltoes -10.5601
332
root 3.10974 15.7976 -2.05579 396.721 19.7867 7.86474
lowerback 6.6466 2.24308 7.83586
upperback 0.131562 3.95056 8.0173
thorax -3.66078 1.91132 3.61044
lowerneck -5.93557 -13.4571 -13.9179
upperneck 12.6373 -18.3323 12.2919
head 7.27756 -8.71243 4.34283
rclavicle -3.81667e-014 1.11319e-013
rhumerus 17.1357 2.73633 -59.5705
rradius 22.8593
rwrist 13.2277
rhand -28.3225 -57.4738
rfingers 7.12502
rthumb 178.303 92.5532
lclavicle -3.81667e-014 1.11319e-013
lhumerus 3.94844 13.5169 -0.963213
lradius 33.2789
lwrist 4.92518
lhand -46.639 -770.238
lfingers 7.12502
lthumb -19.3602 -21.1821
rfemur -79.8638 -7.12392 17.8393
rtibia 63.3368
rfoot -15.9123 -20.072
rtoes 14.3784
lfemur -29.0351 7.44391 -27.4079
ltibia 37.1679
lfoot -34.9805 32.1796
ltoes -10.6654
333
root 3.08394 15.731 -1.94843 397.465 18.8315 7.81988
lowerback 6.90837 2.20319 7.72445
upperback 0.333309 3.89878 8.06194
thorax -3.60573 1.88905 3.71659
lowerneck -6.11166 -13.2509 -13.8232
upperneck 12.087 -18.0229 12.504
head 7.10076 -8.555 4.43867
rclavicle 7.63333e-014 9.54166e-015
rhumerus 18.2119 2.47676 -59.7054
rradius 22.6733
rwrist 13.738
rhand -29.0952 -57.1898
rfingers 7.12502
rthumb 177.556 92.8445
lclavicle 7.63333e-014 9.54166e-015
lhumerus 6.01256 13.0171 -0.321105
lradius 33.3821
lwrist 3.79107
lhand -46.5046 -771.1
lfingers 7.12502
lthumb -19.2309 -22.031
rfemur -81.0204 -6.42722 17.7214
rtibia 64.1202
rfoot -16.4101 -19.7707
rtoes 14.2621
lfemur -29.5755 8.09871 -27.7652
ltibia 37.3749
lfoot -35.5591 32.0377
ltoes -10.5658
334
root 3.06731 15.6794 -1.84711 398.054 18.1026 7.61492
lowerback 7.31538 2.06494 8.05776
upperback 0.636183 3.76261 8.17616
thorax -3.50189 1.81962 3.6567
lowerneck -6.57345 -12.9653 -13.6883
upperneck 11.632 -17.5592 12.5268
head 6.96069 -8.32137 4.47154
rclavicle -3.18055e-015 -3.18055e-015
rhumerus 19.4366 2.54697 -59.6679
rradius 22.6452
rwrist 14.0105
rhand -30.1948 -57.3176
rfingers 7.12502
rthumb 176.494 92.7315
lclavicle -3.18055e-015 -3.18055e-015
lhumerus 6.58841 13.1546 0.658647
lradius 34.8118
lwrist 2.44208
lhand -46.0177 -773.191
lfingers 7.12502
lthumb -18.7627 -24.0755
rfemur -81.9595 -6.06695 18.0516
rtibia 64.8343
rfoot -16.7884 -19.2402
rtoes 13.7119
lfemur -29.9974 8.44543 -27.8559
ltibia 37.5896
lfoot -36.1776 32.1667
ltoes -10.3948
335
root 3.04827 15.6289 -1.74332 398.768 17.4149 7.30193
lowerback 7.60453 1.95219 8.38518
upperback 0.868633 3.6543 8.29574
thorax -3.40711 1.76424 3.60767
lowerneck -6.92758 -12.6611 -13.2924
upperneck 11.2783 -17.086 12.3124
head 6.78838 -8.08846 4.39947
rclavicle 3.18055e-014 4.45278e-014
rhumerus 20.6838 3.15109 -59.3567
rradius 22.6439
rwrist 13.7273
rhand -30.4231 -57.9133
rfingers 7.12502
rthumb 176.274 92.1395
lclavicle 3.18055e-014 4.45278e-014
lhumerus 9.11289 12.7113 1.25887
lradius 34.5355
lwrist 1.66072
lhand -45.8588 -773.933
lfingers 7.12502
lthumb -18.6098 -24.8035
rfemur -83.0465 -5.64684 18.5237
rtibia 65.5047
rfoot -17.1321 -18.7839
rtoes 13.1788
lfemur -30.5256 8.56574 -27.8064
ltibia 37.7235
lfoot -36.9541 32.2524
ltoes -9.8108
336
root 3.02486 15.5753 -1.63682 399.552 16.5846 7.24002
lowerback 7.97784 1.88156 8.3199
upperback 1.10887 3.57738 8.34469
thorax -3.37018 1.72851 3.69392
lowerneck -7.41831 -12.465 -12.968
upperneck 11.0777 -16.7661 12.171
head 6.72461 -7.91838 4.32742
rclavicle 9.54166e-015 -6.04305e-014
rhumerus 21.98 3.94412 -58.7405
rradius 22.755
rwrist 13.0269
rhand -29.8143 -58.6807
rfingers 7.12502
rthumb 176.862 91.3626
lclavicle 9.54166e-015 -6.04305e-014
lhumerus 11.6573 12.3384 1.95758
lradius 34.3003
lwrist 0.844017
lhand -46.072 -774.662
lfingers 7.12502
lthumb -18.815 -25.5524
rfemur -84.1906 -5.22298 18.6373
rtibia 66.2003
rfoot -17.5678 -18.3327
rtoes 13.2988
lfemur -31.0184 8.85261 -28.0801
ltibia 37.8231
lfoot -37.5686 32.2035
ltoes -9.63028
337
root 2.9998 15.5124 -1.53131 400.376 15.5091 7.27633
lowerback 8.43447 1.85896 8.02654
upperback 1.39408 3.54432 8.30811
thorax -3.33988 1.71626 3.80836
lowerneck -8.18069 -12.2391 -12.5878
upperneck 10.9047 -16.383 11.9606
head 6.69845 -7.71038 4.21834
rclavicle -4.45278e-014 -2.8625e-014
rhumerus 23.4673 4.50488 -58.1748
rradius 22.765
rwrist 12.6728
rhand -29.5949 -59.3281
rfingers 7.12502
rthumb 177.074 90.7122
lclavicle -4.45278e-014 -2.8625e-014
lhumerus 14.141 12.0139 2.63097
lradius 34.2744
lwrist 0.475126
lhand -46.084 -775.189
lfingers 7.12502
lthumb -18.8265 -26.0799
rfemur -85.4303 -4.71054 18.5244
rtibia 66.9339
rfoot -17.6506 -17.9066
rtoes 12.7966
lfemur -31.52 9.12365 -28.5788
ltibia 37.9425
lfoot -38.4465 32.0699
ltoes -9.18726
338
root 2.98052 15.444 -1.42259 401.434 14.5255 6.89274
lowerback 8.31676 1.91999 8.05054
upperback 1.72226 3.56747 8.36029
thorax -2.92954 1.73703 3.85657
lowerneck -8.78009 -11.9967 -12.2601
upperneck 10.3697 -15.9985 12.0102
head 6.55966 -7.50258 4.21346
rclavicle -5.40694e-014 -4.13472e-014
rhumerus 24.1487 3.60047 -58.8901
rradius 23.2292
rwrist 14.134
rhand -30.5391 -59.047
rfingers 7.12502
rthumb 176.162 91.0078
lclavicle -5.40694e-014 -4.13472e-014
lhumerus 16.6309 11.7284 3.30162
lradius 34.3129
lwrist 0.309133
lhand -45.8304 -774.904
lfingers 7.12502
lthumb -18.5826 -25.7719
rfemur -86.9571 -4.04515 18.8806
rtibia 67.6304
rfoot -17.5324 -17.5569
rtoes 11.2343
lfemur -32.3942 9.34259 -28.7384
ltibia 38.0504
lfoot -39.4398 31.9847
ltoes -8.43556
